<?xml version="1.0" encoding="utf-8"?>
<!-- Generator: Adobe Illustrator 16.0.0, SVG Export Plug-In . SVG Version: 6.00 Build 0)  -->
<!DOCTYPE svg PUBLIC "-//W3C//DTD SVG 1.1//EN" "http://www.w3.org/Graphics/SVG/1.1/DTD/svg11.dtd">
<svg version="1.1" id="Layer_1" xmlns="http://www.w3.org/2000/svg" xmlns:xlink="http://www.w3.org/1999/xlink" x="0px" y="0px"
	 width="404px" height="167px" viewBox="0 0 404 167" enable-background="new 0 0 404 167" xml:space="preserve">
<rect fill="#079AC0" width="404" height="167"/>
<g>
	<g>
		<path fill="#FFFFFF" d="M70.808,74.059v-0.409c0.082,0,0.279-0.026,0.593-0.082c0.313-0.054,0.641-0.149,0.982-0.286
			c0.34-0.136,0.64-0.327,0.899-0.572c0.259-0.246,0.389-0.559,0.389-0.941c0-0.245-0.076-0.647-0.225-1.206
			c-0.15-0.559-0.362-1.241-0.634-2.045c-0.273-0.804-0.586-1.697-0.941-2.678c-0.354-0.982-0.736-2.004-1.145-3.068H59.847
			c-0.409,1.037-0.805,2.024-1.186,2.965c-0.382,0.941-0.764,1.888-1.146,2.843c-0.572,1.472-0.859,2.509-0.859,3.109
			c0,0.354,0.109,0.648,0.328,0.879c0.218,0.231,0.497,0.423,0.838,0.573c0.34,0.15,0.708,0.259,1.104,0.327
			c0.395,0.069,0.77,0.13,1.125,0.184v0.409h-8.712v-0.45c0.709-0.083,1.315-0.272,1.82-0.573c0.504-0.3,0.797-0.504,0.879-0.614
			c0.19-0.19,0.504-0.64,0.94-1.35c0.436-0.708,0.968-1.758,1.595-3.149c0.573-1.282,1.213-2.74,1.922-4.376
			c0.708-1.636,1.438-3.319,2.188-5.051c0.75-1.731,1.493-3.477,2.229-5.235c0.736-1.759,1.431-3.401,2.086-4.928l-0.409-0.9
			c0.491-0.218,0.934-0.477,1.329-0.777c0.395-0.3,0.743-0.614,1.043-0.941c0.3-0.327,0.552-0.64,0.756-0.94
			c0.205-0.3,0.361-0.545,0.471-0.736h0.327c0.845,2.264,1.649,4.411,2.413,6.442c0.763,2.032,1.493,3.987,2.188,5.869
			s1.37,3.702,2.025,5.46c0.654,1.759,1.309,3.497,1.963,5.214c0.299,0.845,0.579,1.548,0.838,2.106
			c0.259,0.559,0.552,1.193,0.879,1.902c0.054,0.109,0.177,0.3,0.368,0.573c0.19,0.272,0.443,0.553,0.756,0.839
			s0.702,0.538,1.166,0.756c0.463,0.218,1.008,0.341,1.636,0.368v0.491H70.808z M65.45,49.273c-0.164,0.354-0.403,0.914-0.716,1.677
			c-0.314,0.763-0.702,1.691-1.166,2.781c-0.464,1.091-0.976,2.325-1.534,3.701c-0.559,1.377-1.166,2.87-1.82,4.479h10.184
			c-0.464-1.227-0.934-2.454-1.411-3.681c-0.478-1.227-0.941-2.406-1.391-3.538c-0.45-1.131-0.859-2.167-1.227-3.108
			C66.002,50.643,65.695,49.874,65.45,49.273z"/>
		<path fill="#FFFFFF" d="M106.963,51.686c-1.118-1.391-2.181-2.577-3.19-3.558c-1.009-0.982-1.991-1.704-2.945-2.167
			c-0.464-0.218-1.302-0.402-2.515-0.552c-1.214-0.149-2.625-0.225-4.233-0.225c-0.273,0-0.587,0.007-0.941,0.021
			c-0.354,0.014-0.695,0.027-1.022,0.041c-0.327,0.014-0.634,0.027-0.92,0.041c-0.286,0.014-0.498,0.021-0.634,0.021
			c-0.028,0.163-0.062,0.327-0.103,0.49c-0.041,0.164-0.076,0.355-0.102,0.573c-0.028,0.218-0.055,0.498-0.082,0.838
			c-0.027,0.342-0.055,0.757-0.082,1.248c-0.027,0.955-0.047,1.998-0.061,3.128c-0.014,1.132-0.021,2.202-0.021,3.211
			s0,1.881,0,2.618c0,0.709,0,1.131,0,1.268c0.082,0,0.327,0,0.736,0c0.436,0,0.92-0.013,1.452-0.042
			c0.532-0.026,1.084-0.061,1.656-0.102c0.573-0.041,1.049-0.102,1.432-0.184c0.981-0.217,1.759-0.504,2.331-0.859
			c0.573-0.354,1.022-0.777,1.35-1.268c0.327-0.491,0.558-1.029,0.695-1.615c0.136-0.586,0.259-1.221,0.368-1.902h0.491v13.17
			h-0.491c-0.219-0.873-0.531-1.793-0.94-2.761c-0.409-0.967-0.9-1.71-1.473-2.229c-0.518-0.464-1.07-0.811-1.656-1.043
			c-0.586-0.231-1.275-0.375-2.065-0.43c-0.409-0.026-0.764-0.047-1.063-0.061c-0.3-0.014-0.586-0.021-0.859-0.021s-0.559,0-0.859,0
			c-0.3,0-0.668,0-1.104,0c0,0.874,0,1.746,0,2.618c0,0.845,0,1.664,0,2.454c0,0.764,0.006,1.466,0.021,2.106
			c0.014,0.641,0.021,1.193,0.021,1.656c0.027,0.874,0.075,1.697,0.143,2.475c0.068,0.776,0.225,1.356,0.471,1.738
			c0.245,0.382,0.66,0.675,1.248,0.879c0.585,0.204,1.438,0.334,2.556,0.388v0.409H81.482v-0.409
			c0.681-0.108,1.315-0.286,1.902-0.532c0.586-0.246,1.07-0.585,1.452-1.022c0.136-0.164,0.245-0.402,0.327-0.716
			s0.157-0.675,0.225-1.084c0.067-0.409,0.116-0.839,0.143-1.289c0.026-0.45,0.041-0.893,0.041-1.329c0-0.382,0.007-0.9,0.021-1.554
			c0.013-0.655,0.026-1.371,0.041-2.147c0.014-0.778,0.021-1.575,0.021-2.393c0-0.845,0-1.636,0-2.372v-7.976
			c0-0.491-0.007-0.995-0.021-1.513c-0.014-0.518-0.041-1.009-0.082-1.473c-0.041-0.463-0.109-0.879-0.205-1.247
			c-0.096-0.368-0.225-0.634-0.389-0.798c-0.409-0.436-0.846-0.715-1.309-0.838c-0.464-0.123-1.063-0.238-1.8-0.348v-0.409h22.741
			l2.781,6.871L106.963,51.686z"/>
		<path fill="#FFFFFF" d="M129.212,74.059c-0.245-0.246-0.423-0.43-0.532-0.552c-0.109-0.123-0.231-0.267-0.368-0.43
			c-0.136-0.164-0.307-0.402-0.511-0.716c-0.204-0.313-0.525-0.783-0.961-1.411c-0.518-0.763-0.975-1.453-1.37-2.066
			c-0.396-0.613-0.797-1.22-1.207-1.82c-0.409-0.599-0.853-1.206-1.329-1.819c-0.478-0.614-1.043-1.302-1.698-2.066
			c-0.546-0.626-1.139-1.213-1.779-1.758c-0.641-0.545-1.316-0.886-2.024-1.023c-0.518-0.108-0.914-0.163-1.186-0.163
			c-0.246,0-0.559-0.014-0.94-0.041c0,1.772,0,3.313,0,4.622c0,1.309,0.013,2.414,0.041,3.313c0.026,0.873,0.054,1.623,0.082,2.249
			c0.027,0.628,0.177,1.146,0.45,1.555c0.218,0.354,0.641,0.715,1.268,1.083c0.627,0.368,1.5,0.58,2.618,0.634v0.409h-13.088v-0.409
			c0.681-0.108,1.335-0.272,1.963-0.491c0.627-0.217,1.118-0.545,1.472-0.981c0.136-0.163,0.246-0.409,0.327-0.736
			c0.082-0.327,0.143-0.695,0.184-1.104s0.075-0.845,0.102-1.309c0.027-0.464,0.041-0.914,0.041-1.35c0-0.382,0.006-0.9,0.021-1.554
			c0.013-0.655,0.027-1.371,0.041-2.147c0.014-0.778,0.021-1.575,0.021-2.393c0-0.845,0-1.636,0-2.372v-7.976
			c0-0.491-0.007-0.988-0.021-1.493c-0.014-0.504-0.041-0.982-0.082-1.432c-0.041-0.45-0.109-0.859-0.205-1.227
			c-0.096-0.368-0.225-0.634-0.388-0.797c-0.409-0.436-0.866-0.729-1.37-0.879c-0.505-0.149-1.125-0.279-1.861-0.389v-0.409
			c0.218,0,0.777,0,1.677,0c0.927,0,1.977-0.007,3.149-0.021c1.172-0.013,2.345-0.02,3.517-0.02c1.172,0,2.126,0,2.863,0
			c1.827,0,3.449,0.055,4.867,0.164c1.417,0.109,2.713,0.477,3.886,1.104c1.199,0.627,2.167,1.479,2.904,2.556
			c0.736,1.077,1.104,2.434,1.104,4.069c0,1.009-0.185,1.916-0.552,2.72c-0.369,0.805-0.859,1.513-1.473,2.126
			c-0.613,0.614-1.329,1.139-2.147,1.575c-0.817,0.437-1.677,0.805-2.576,1.104v0.123c0.463,0.246,0.913,0.6,1.35,1.063
			c0.436,0.464,0.859,0.982,1.268,1.554c0.708,1.036,1.479,2.155,2.311,3.354c0.832,1.201,1.575,2.264,2.229,3.19
			c1.008,1.419,1.99,2.455,2.945,3.109c0.954,0.654,2.072,1.078,3.354,1.268v0.409H129.212z M125.163,48.578
			c-0.682-1.063-1.677-1.908-2.986-2.536c-0.655-0.3-1.344-0.518-2.065-0.654c-0.723-0.137-1.479-0.205-2.27-0.205
			c-0.572,0-1.037,0.014-1.391,0.041c-0.354,0.027-0.627,0.055-0.818,0.082c-0.027,0.163-0.055,0.307-0.082,0.43
			c-0.027,0.122-0.048,0.279-0.061,0.47c-0.014,0.191-0.027,0.457-0.041,0.798c-0.014,0.341-0.035,0.825-0.062,1.452
			c-0.027,0.955-0.048,2.031-0.062,3.23c-0.014,1.201-0.02,2.359-0.02,3.477c0,1.118,0,2.1,0,2.945c0,0.817,0,1.335,0,1.554
			c1.117,0,2.161-0.047,3.128-0.144c0.968-0.095,1.902-0.292,2.802-0.593c0.873-0.272,1.622-0.64,2.25-1.104
			c0.627-0.463,1.138-0.987,1.534-1.574c0.395-0.586,0.688-1.22,0.879-1.902c0.19-0.681,0.286-1.39,0.286-2.126
			C126.186,50.855,125.844,49.641,125.163,48.578z"/>
		<path fill="#FFFFFF" d="M136.41,74.059v-0.409c0.681-0.108,1.315-0.286,1.902-0.532c0.586-0.246,1.083-0.599,1.493-1.063
			c0.136-0.164,0.238-0.394,0.307-0.695c0.067-0.3,0.123-0.654,0.163-1.063c0.041-0.409,0.068-0.839,0.082-1.289
			c0.014-0.45,0.021-0.893,0.021-1.329c0-0.382,0.006-0.9,0.021-1.554c0.013-0.655,0.027-1.371,0.041-2.147
			c0.013-0.778,0.021-1.575,0.021-2.393c0-0.845,0-1.636,0-2.372v-7.976c0-0.491,0-0.981,0-1.473c0-0.49-0.021-0.947-0.062-1.37
			c-0.041-0.422-0.103-0.804-0.184-1.146c-0.082-0.34-0.205-0.606-0.368-0.797c-0.382-0.463-0.853-0.797-1.411-1.002
			c-0.56-0.204-1.194-0.348-1.902-0.429v-0.409h12.229v0.409c-0.572,0.082-1.186,0.232-1.841,0.45
			c-0.654,0.219-1.159,0.655-1.513,1.31c-0.245,0.463-0.375,1.049-0.388,1.758c-0.014,0.709-0.034,1.377-0.062,2.004
			c0,0.682-0.007,1.356-0.02,2.024c-0.014,0.669-0.021,1.343-0.021,2.024c0,0.682,0,1.391,0,2.126c0,0.71,0,1.487,0,2.332v9.243
			c0,0.792,0.014,1.555,0.041,2.291s0.149,1.255,0.368,1.554c0.327,0.463,0.845,0.818,1.554,1.063
			c0.708,0.246,1.35,0.396,1.922,0.45v0.409H136.41z"/>
		<path fill="#FFFFFF" d="M178.454,54.1c-0.354-1.309-0.886-2.536-1.595-3.681c-0.709-1.145-1.548-2.141-2.515-2.986
			c-0.968-0.845-2.06-1.514-3.272-2.004c-1.213-0.491-2.502-0.737-3.865-0.737c-1.881,0-3.558,0.423-5.03,1.269
			c-1.473,0.846-2.707,1.963-3.702,3.354c-0.996,1.391-1.759,2.965-2.291,4.724c-0.532,1.758-0.797,3.565-0.797,5.419
			c0,1.963,0.279,3.804,0.838,5.521c0.559,1.718,1.356,3.21,2.393,4.479c1.036,1.268,2.29,2.27,3.763,3.006
			c1.473,0.737,3.108,1.104,4.908,1.104c1.417,0,2.747-0.258,3.987-0.776c1.24-0.518,2.345-1.2,3.313-2.045
			c0.968-0.845,1.785-1.821,2.454-2.925c0.668-1.104,1.125-2.242,1.37-3.415h0.491l-0.123,8.999h-0.491
			c-0.328-0.463-0.669-0.886-1.023-1.268c-0.354-0.381-0.6-0.573-0.736-0.573c-0.055,0-0.3,0.143-0.736,0.43
			c-0.437,0.287-1.063,0.6-1.881,0.94c-0.818,0.342-1.813,0.641-2.986,0.9c-1.173,0.259-2.522,0.388-4.049,0.388
			c-2.536,0-4.826-0.36-6.871-1.083c-2.045-0.722-3.783-1.745-5.215-3.068s-2.53-2.904-3.292-4.745
			c-0.764-1.84-1.145-3.865-1.145-6.073c0-0.491,0.034-1.05,0.102-1.677c0.068-0.627,0.19-1.295,0.368-2.005
			c0.177-0.708,0.422-1.452,0.736-2.229c0.313-0.777,0.715-1.561,1.207-2.352c0.572-0.927,1.281-1.812,2.126-2.658
			c0.845-0.845,1.841-1.588,2.986-2.229c1.145-0.641,2.439-1.152,3.885-1.534c1.445-0.381,3.067-0.573,4.867-0.573
			c1.636,0,3.068,0.15,4.294,0.45c1.227,0.3,2.25,0.627,3.068,0.981c0.818,0.354,1.445,0.682,1.881,0.981
			c0.436,0.3,0.681,0.45,0.736,0.45c0.054,0,0.156-0.061,0.306-0.184c0.149-0.123,0.313-0.272,0.491-0.45
			c0.177-0.177,0.361-0.382,0.552-0.613c0.19-0.231,0.369-0.47,0.532-0.716h0.45v9.161L178.454,54.1z"/>
		<path fill="#FFFFFF" d="M197.472,74.059v-0.409c0.083,0,0.28-0.026,0.594-0.082c0.313-0.054,0.641-0.149,0.981-0.286
			c0.341-0.136,0.641-0.327,0.9-0.572c0.259-0.246,0.388-0.559,0.388-0.941c0-0.245-0.075-0.647-0.225-1.206
			c-0.15-0.559-0.362-1.241-0.634-2.045c-0.273-0.804-0.587-1.697-0.941-2.678c-0.354-0.982-0.736-2.004-1.145-3.068h-10.879
			c-0.409,1.037-0.805,2.024-1.186,2.965c-0.382,0.941-0.764,1.888-1.146,2.843c-0.573,1.472-0.859,2.509-0.859,3.109
			c0,0.354,0.109,0.648,0.327,0.879c0.218,0.231,0.497,0.423,0.838,0.573c0.341,0.15,0.709,0.259,1.104,0.327
			c0.395,0.069,0.77,0.13,1.125,0.184v0.409h-8.712v-0.45c0.709-0.083,1.315-0.272,1.82-0.573c0.504-0.3,0.798-0.504,0.879-0.614
			c0.19-0.19,0.504-0.64,0.941-1.35c0.436-0.708,0.967-1.758,1.595-3.149c0.573-1.282,1.213-2.74,1.922-4.376
			c0.709-1.636,1.438-3.319,2.188-5.051s1.494-3.477,2.229-5.235c0.737-1.759,1.432-3.401,2.085-4.928l-0.409-0.9
			c0.491-0.218,0.934-0.477,1.33-0.777s0.743-0.614,1.043-0.941c0.3-0.327,0.552-0.64,0.757-0.94c0.204-0.3,0.361-0.545,0.47-0.736
			h0.328c0.844,2.264,1.649,4.411,2.413,6.442c0.764,2.032,1.493,3.987,2.188,5.869s1.37,3.702,2.024,5.46s1.308,3.497,1.964,5.214
			c0.299,0.845,0.578,1.548,0.838,2.106c0.258,0.559,0.553,1.193,0.879,1.902c0.055,0.109,0.178,0.3,0.369,0.573
			c0.189,0.272,0.441,0.553,0.756,0.839c0.312,0.286,0.701,0.538,1.166,0.756c0.463,0.218,1.008,0.341,1.635,0.368v0.491H197.472z
			 M192.115,49.273c-0.165,0.354-0.403,0.914-0.716,1.677s-0.702,1.691-1.165,2.781c-0.464,1.091-0.975,2.325-1.534,3.701
			c-0.56,1.377-1.165,2.87-1.819,4.479h10.183c-0.464-1.227-0.934-2.454-1.411-3.681c-0.478-1.227-0.94-2.406-1.391-3.538
			c-0.45-1.131-0.859-2.167-1.227-3.108C192.667,50.643,192.359,49.874,192.115,49.273z"/>
		<path fill="#FFFFFF" d="M238.638,45.796c-0.613,0.382-1.084,0.968-1.411,1.759c-0.191,0.409-0.314,1.166-0.368,2.27
			c-0.055,1.104-0.109,2.284-0.163,3.538c-0.056,1.173-0.103,2.556-0.144,4.152c-0.041,1.595-0.062,3.306-0.062,5.132
			c0,0.764,0,1.636,0,2.618c0,0.955,0.007,1.93,0.021,2.924c0.014,0.996,0.021,1.984,0.021,2.966c0,0.981,0,1.868,0,2.658
			c0,0.109-0.034,0.198-0.103,0.266c-0.068,0.067-0.17,0.103-0.306,0.103c-0.22,0-0.465-0.137-0.738-0.409
			c-2.316-2.672-4.43-5.126-6.338-7.362c-1.91-2.236-3.73-4.37-5.461-6.401c-1.732-2.031-3.43-4.015-5.092-5.951
			c-1.664-1.936-3.422-3.939-5.275-6.012v17.26c0,1.39,0.033,2.645,0.102,3.762c0.068,1.119,0.238,1.95,0.512,2.495
			c0.299,0.627,0.77,1.098,1.41,1.411c0.641,0.314,1.52,0.539,2.639,0.675v0.409H207.82v-0.409c0.654-0.082,1.309-0.251,1.963-0.511
			c0.654-0.259,1.172-0.689,1.553-1.289c0.383-0.572,0.627-1.417,0.738-2.536c0.107-1.118,0.189-2.454,0.244-4.008
			c0.055-1.172,0.096-2.557,0.123-4.152c0.027-1.595,0.041-3.306,0.041-5.133c0-0.79,0-1.444,0-1.963c0-0.518,0-1.022,0-1.513
			c0-0.49,0-0.995,0-1.513c0-0.545-0.014-1.213-0.041-2.004c-0.082-0.791-0.273-1.438-0.572-1.943
			c-0.301-0.504-0.656-0.899-1.064-1.186c-0.408-0.287-0.852-0.491-1.328-0.614c-0.479-0.123-0.936-0.21-1.371-0.266v-0.409h8.303
			l19.387,22.658V53.363c0-1.09-0.014-2.133-0.041-3.128c-0.027-0.995-0.149-1.779-0.369-2.352
			c-0.271-0.763-0.756-1.384-1.451-1.861s-1.697-0.812-3.006-1.002v-0.409h10.143v0.409
			C240.062,45.157,239.251,45.416,238.638,45.796z"/>
	</g>
	<g>
		<path fill="#FFFFFF" d="M94.218,117.879c-0.512,1.348-1.185,2.532-2.021,3.554c-0.836,1.022-1.766,1.894-2.788,2.613
			c-1.022,0.72-2.045,1.266-3.066,1.638c-1.766,0.65-3.74,1.045-5.923,1.184c-2.184,0.14-4.297,0.21-6.341,0.21h-24.04v-0.697
			c1.161-0.185,2.265-0.488,3.31-0.906c1.045-0.418,1.893-0.998,2.543-1.741c0.232-0.279,0.418-0.686,0.557-1.22
			c0.14-0.533,0.267-1.149,0.384-1.847c0.115-0.696,0.197-1.428,0.244-2.195c0.046-0.766,0.07-1.521,0.07-2.264
			c0-0.65,0.011-1.533,0.035-2.648c0.023-1.115,0.046-2.334,0.07-3.658c0.023-1.324,0.035-2.684,0.035-4.076
			c0-1.439,0-2.787,0-4.043c0-1.393,0-2.623,0-3.693c0-1.066,0-2.09,0-3.064c0-1.021-0.012-2.066-0.035-3.137
			c-0.024-1.066-0.035-2.299-0.035-3.691c0-0.838-0.024-1.684-0.069-2.544c-0.047-0.859-0.129-1.683-0.244-2.474
			c-0.116-0.789-0.256-1.499-0.418-2.125c-0.163-0.627-0.383-1.081-0.662-1.359c-0.697-0.743-1.394-1.243-2.091-1.499
			c-0.697-0.254-1.672-0.453-2.926-0.593v-0.696H74.29c1.765,0,3.449,0.105,5.052,0.313c1.603,0.209,3.146,0.593,4.634,1.15
			c2.369,0.882,4.32,2.229,5.853,4.041c1.533,1.812,2.3,4.111,2.3,6.897c0,3.066-0.988,5.541-2.961,7.422
			c-1.976,1.881-4.542,3.148-7.7,3.797v0.279c1.672,0.186,3.32,0.592,4.947,1.219c1.626,0.627,3.077,1.477,4.355,2.545
			s2.3,2.334,3.066,3.797s1.15,3.125,1.15,4.982C94.985,115.021,94.729,116.532,94.218,117.879z M82.337,83.108
			c-1.185-1.812-2.66-3.112-4.424-3.902c-2.091-0.93-4.762-1.394-8.014-1.394c-0.976,0-1.858,0.046-2.647,0.139
			c-0.791,0.094-1.394,0.209-1.812,0.349c-0.046,0.278-0.094,0.535-0.139,0.767c-0.047,0.233-0.082,0.522-0.104,0.871
			c-0.024,0.348-0.047,0.778-0.07,1.289c-0.024,0.512-0.059,1.185-0.104,2.021c-0.047,1.626-0.082,3.415-0.104,5.366
			c-0.024,1.951-0.035,3.809-0.035,5.574c0,1.719,0,3.205,0,4.459s0,1.998,0,2.23c1.533,0,2.833,0,3.902,0
			c1.068,0,1.927-0.023,2.579-0.07c4.18-0.232,7.351-1.416,9.511-3.553s3.241-4.785,3.241-7.945
			C84.115,86.987,83.522,84.919,82.337,83.108z M86.17,110.318c-0.442-1.186-1.045-2.275-1.812-3.275
			c-0.767-0.998-1.672-1.857-2.718-2.578c-1.045-0.719-2.195-1.289-3.449-1.707c-1.022-0.324-2.033-0.545-3.031-0.662
			c-0.999-0.115-2.172-0.174-3.519-0.174h-6.759c0,1.486,0,2.973,0,4.459c0,1.488,0,2.904,0,4.25c0,1.303,0.011,2.498,0.035,3.59
			c0.023,1.092,0.035,2.033,0.035,2.822c0.046,1.766,0.127,3.217,0.244,4.354c0.115,1.14,0.453,2.08,1.01,2.822
			c0.418,0.512,1.045,0.94,1.881,1.289s2.043,0.522,3.624,0.522c1.347,0,2.81-0.092,4.39-0.278c1.579-0.186,3.112-0.673,4.599-1.463
			c1.951-1.021,3.46-2.381,4.529-4.076c1.068-1.695,1.603-3.729,1.603-6.099C86.832,112.768,86.611,111.504,86.17,110.318z"/>
		<path fill="#FFFFFF" d="M127.386,127.077v-0.697c0.139,0,0.476-0.046,1.01-0.139c0.533-0.094,1.091-0.256,1.672-0.488
			c0.58-0.231,1.091-0.558,1.533-0.976c0.441-0.418,0.662-0.951,0.662-1.603c0-0.418-0.129-1.104-0.383-2.056
			c-0.256-0.951-0.616-2.113-1.08-3.484c-0.465-1.369-1-2.893-1.603-4.564c-0.604-1.672-1.254-3.414-1.951-5.227h-18.535
			c-0.697,1.766-1.371,3.449-2.021,5.053c-0.651,1.602-1.301,3.217-1.951,4.843c-0.976,2.509-1.463,4.274-1.463,5.296
			c0,0.604,0.185,1.104,0.557,1.498c0.372,0.396,0.848,0.721,1.429,0.976c0.581,0.256,1.208,0.442,1.881,0.558
			c0.673,0.116,1.312,0.221,1.916,0.313v0.697H94.218v-0.767c1.208-0.14,2.241-0.464,3.101-0.976
			c0.859-0.511,1.359-0.859,1.499-1.045c0.324-0.325,0.859-1.091,1.603-2.3c0.743-1.208,1.648-2.996,2.717-5.365
			c0.976-2.184,2.067-4.67,3.275-7.457c1.208-2.787,2.45-5.654,3.728-8.605c1.277-2.949,2.543-5.922,3.797-8.918
			c1.254-2.998,2.439-5.795,3.554-8.397l-0.697-1.532c0.836-0.372,1.591-0.813,2.265-1.324c0.672-0.511,1.265-1.045,1.777-1.603
			c0.51-0.558,0.94-1.091,1.289-1.603c0.349-0.51,0.616-0.929,0.802-1.254h0.558c1.439,3.856,2.81,7.515,4.111,10.975
			c1.3,3.461,2.543,6.793,3.728,9.999s2.334,6.307,3.449,9.303s2.23,5.957,3.345,8.885c0.511,1.44,0.986,2.637,1.428,3.589
			c0.441,0.952,0.941,2.032,1.498,3.24c0.093,0.186,0.302,0.511,0.627,0.976c0.324,0.464,0.754,0.939,1.289,1.428
			c0.533,0.487,1.195,0.918,1.986,1.289c0.79,0.372,1.718,0.582,2.787,0.628v0.836H127.386z M118.257,84.85
			c-0.278,0.604-0.686,1.557-1.219,2.857c-0.535,1.301-1.197,2.881-1.986,4.738c-0.791,1.857-1.661,3.961-2.613,6.305
			c-0.953,2.348-1.985,4.891-3.101,7.631h17.351c-0.791-2.09-1.592-4.18-2.404-6.271c-0.813-2.09-1.603-4.1-2.37-6.027
			c-0.767-1.926-1.463-3.693-2.09-5.295C119.198,87.184,118.676,85.872,118.257,84.85z"/>
		<path fill="#FFFFFF" d="M197.52,78.927c-1.046,0.651-1.847,1.649-2.405,2.996c-0.325,0.697-0.534,1.986-0.626,3.868
			c-0.094,1.881-0.187,3.891-0.279,6.027c-0.094,1.998-0.174,4.355-0.244,7.072c-0.069,2.717-0.104,5.633-0.104,8.744
			c0,1.301,0,2.787,0,4.459c0,1.627,0.01,3.288,0.035,4.983c0.023,1.697,0.035,3.38,0.035,5.052c0,1.673,0,3.183,0,4.53
			c0,0.186-0.06,0.337-0.175,0.452c-0.116,0.115-0.291,0.175-0.522,0.175c-0.373,0-0.791-0.232-1.254-0.697
			c-3.949-4.552-7.55-8.732-10.801-12.544c-3.252-3.807-6.354-7.443-9.303-10.904c-2.95-3.459-5.842-6.84-8.675-10.139
			c-2.834-3.297-5.83-6.712-8.989-10.242v29.404c0,2.369,0.058,4.507,0.174,6.412c0.115,1.905,0.406,3.321,0.871,4.25
			c0.511,1.069,1.312,1.87,2.404,2.403c1.091,0.535,2.589,0.918,4.495,1.15v0.697h-17.142v-0.697
			c1.115-0.139,2.229-0.429,3.345-0.871c1.115-0.441,1.997-1.173,2.648-2.194c0.649-0.976,1.068-2.415,1.254-4.32
			c0.185-1.905,0.324-4.182,0.418-6.83c0.093-1.996,0.162-4.355,0.209-7.072c0.045-2.717,0.069-5.631,0.069-8.744
			c0-1.348,0-2.463,0-3.346c0-0.881,0-1.742,0-2.578s0-1.695,0-2.578c0-0.928-0.024-2.066-0.069-3.414
			c-0.14-1.347-0.465-2.45-0.976-3.31c-0.512-0.859-1.115-1.533-1.812-2.021c-0.697-0.488-1.452-0.837-2.264-1.045
			c-0.814-0.21-1.592-0.36-2.334-0.454v-0.696h14.145l33.029,38.604V91.818c0-1.857-0.023-3.635-0.069-5.331
			c-0.047-1.696-0.256-3.031-0.627-4.007c-0.465-1.3-1.29-2.357-2.474-3.171c-1.185-0.812-2.892-1.381-5.122-1.708v-0.696h17.281
			v0.696C199.947,77.836,198.565,78.276,197.52,78.927z"/>
		<path fill="#FFFFFF" d="M241.314,127.077c-0.187-0.093-0.396-0.22-0.628-0.384c-0.232-0.162-0.487-0.406-0.767-0.731
			c-2.974-3.437-5.795-6.7-8.467-9.791c-2.672-3.089-5.447-6.212-8.326-9.372c-1.209-1.346-2.033-2.184-2.475-2.508
			s-0.824-0.488-1.148-0.488c-0.373,0-0.617,0.082-0.732,0.244c-0.115,0.164-0.244,0.43-0.383,0.801c0,2.416,0,4.717,0,6.898
			c0,2.139,0.023,3.973,0.068,5.506c0.047,1.348,0.141,2.603,0.279,3.763c0.141,1.162,0.441,2.044,0.906,2.647
			c0.324,0.465,0.766,0.86,1.324,1.185c0.559,0.325,1.16,0.593,1.811,0.802s1.289,0.372,1.918,0.487
			c0.627,0.117,1.172,0.198,1.637,0.244v0.697h-22.367v-0.697c1.16-0.185,2.275-0.464,3.344-0.837
			c1.068-0.371,1.883-0.881,2.439-1.532c0.232-0.278,0.418-0.696,0.557-1.254c0.141-0.558,0.244-1.195,0.314-1.917
			c0.07-0.72,0.115-1.485,0.139-2.299c0.023-0.812,0.035-1.591,0.035-2.334c0-0.65,0.012-1.533,0.035-2.648s0.035-2.322,0.035-3.623
			c0-1.348,0-2.719,0-4.111c0-1.439,0-2.787,0-4.043V88.195c0-1.765-0.059-3.392-0.174-4.879c-0.117-1.485-0.43-2.554-0.941-3.205
			c-0.65-0.79-1.439-1.37-2.369-1.742c-0.93-0.372-1.998-0.627-3.205-0.768v-0.696h21.602v0.696
			c-0.885,0.094-1.742,0.222-2.578,0.384c-0.838,0.163-1.58,0.512-2.23,1.046c-0.65,0.534-1.197,1.335-1.637,2.403
			c-0.443,1.069-0.688,2.578-0.732,4.529c-0.047,1.068-0.082,2.068-0.104,2.996c-0.025,0.93-0.037,1.998-0.037,3.205
			c0,1.209,0,2.672,0,4.391c0,1.672,0,3.809,0,6.41c0.838-0.51,1.963-1.381,3.381-2.613c1.416-1.23,2.902-2.613,4.459-4.146
			s3.102-3.111,4.635-4.736c1.531-1.627,2.855-3.043,3.971-4.252c0.79-0.929,1.499-1.881,2.126-2.857
			c0.628-0.975,0.941-1.857,0.941-2.647c0-1.347-0.466-2.323-1.395-2.927c-0.93-0.604-1.999-0.999-3.206-1.186v-0.696h18.676v0.696
			c-2.369,0.233-4.763,1.232-7.178,2.997c-2.415,1.766-4.877,3.81-7.386,6.133c-0.976,0.881-1.976,1.834-2.997,2.856
			s-2.033,2.045-3.031,3.066s-1.975,2.01-2.926,2.961c-0.953,0.953-1.824,1.848-2.613,2.684c0.371,0.465,1.23,1.475,2.578,3.031
			c1.346,1.557,2.949,3.379,4.809,5.469c1.857,2.092,3.843,4.32,5.958,6.689c2.113,2.37,4.146,4.646,6.097,6.829
			c0.464,0.558,0.999,1.115,1.603,1.673c0.604,0.557,1.185,1.057,1.742,1.498c0.557,0.442,1.045,0.825,1.463,1.149
			c0.418,0.326,0.697,0.513,0.837,0.558c0.603,0.232,1.428,0.465,2.474,0.696c1.045,0.233,2.217,0.396,3.518,0.488v0.697H241.314z"
			/>
		<path fill="#FFFFFF" d="M297.06,127.077h-42.645v-0.697c1.16-0.185,2.24-0.488,3.239-0.906s1.822-0.998,2.475-1.741
			c0.231-0.279,0.417-0.686,0.557-1.22c0.14-0.533,0.267-1.149,0.383-1.847c0.115-0.696,0.197-1.428,0.244-2.195
			c0.046-0.766,0.069-1.521,0.069-2.264c0-0.65,0.012-1.533,0.035-2.648c0.022-1.115,0.046-2.334,0.07-3.658
			c0.022-1.324,0.035-2.684,0.035-4.076c0-1.439,0-2.787,0-4.043V88.195c0-0.838-0.013-1.696-0.035-2.579
			c-0.024-0.882-0.07-1.718-0.14-2.508s-0.186-1.499-0.349-2.126c-0.163-0.626-0.383-1.08-0.662-1.359
			c-0.696-0.743-1.439-1.219-2.229-1.428s-1.812-0.406-3.066-0.593v-0.696h38.464l4.739,11.498l-0.697,0.348
			c-3.763-4.691-7.294-7.851-10.592-9.477c-0.79-0.371-2.253-0.697-4.39-0.976c-2.138-0.278-4.738-0.418-7.805-0.418
			c-0.976,0-1.985,0.035-3.031,0.104c-1.045,0.07-1.8,0.151-2.265,0.244c-0.093,0.744-0.174,2.276-0.243,4.599
			c-0.069,2.323-0.105,5.017-0.105,8.083c0,1.766,0,3.252,0,4.459c0,1.209,0.012,2.195,0.036,2.961
			c0.022,0.768,0.034,1.359,0.034,1.777c0,0.373,0,0.627,0,0.768c0.231,0,0.697,0,1.394,0c0.697,0,1.498-0.023,2.404-0.07
			c0.906-0.045,1.812-0.105,2.718-0.174c0.905-0.07,1.66-0.174,2.265-0.314c1.394-0.324,2.554-0.766,3.483-1.324
			c0.929-0.557,1.684-1.229,2.265-2.02c0.581-0.789,1.045-1.707,1.394-2.752s0.662-2.219,0.94-3.52h0.836v21.949h-0.836
			c-0.371-1.486-0.94-3.02-1.707-4.6c-0.766-1.578-1.567-2.764-2.403-3.553c-0.744-0.65-1.638-1.186-2.683-1.604
			s-2.265-0.672-3.658-0.766c-0.697-0.045-1.278-0.08-1.742-0.105c-0.465-0.021-0.931-0.035-1.395-0.035c-0.418,0-0.882,0-1.394,0
			c-0.464,0-1.068,0-1.811,0c-0.095,0.652-0.141,1.604-0.141,2.857s0,2.555,0,3.902c0,0.604,0,1.301,0,2.092
			c0,0.789,0,1.578,0,2.369c0,0.742,0.012,1.451,0.036,2.125c0.022,0.674,0.034,1.243,0.034,1.707
			c0.046,1.487,0.128,2.892,0.244,4.216c0.115,1.324,0.383,2.312,0.802,2.961c0.418,0.651,1.416,1.115,2.996,1.394
			c1.578,0.278,3.297,0.418,5.156,0.418c0.789,0,1.799-0.022,3.03-0.069c1.23-0.046,2.52-0.162,3.868-0.349
			c1.485-0.186,2.856-0.546,4.11-1.08c1.255-0.533,2.462-1.289,3.624-2.265c1.16-0.976,2.288-2.171,3.38-3.588
			s2.218-3.124,3.38-5.122l0.767,0.209L297.06,127.077z"/>
		<path fill="#FFFFFF" d="M339.564,127.077c-0.418-0.418-0.721-0.732-0.906-0.941c-0.186-0.208-0.395-0.452-0.627-0.731
			c-0.232-0.278-0.522-0.685-0.871-1.22c-0.348-0.533-0.895-1.334-1.638-2.403c-0.883-1.3-1.661-2.474-2.334-3.519
			c-0.674-1.046-1.358-2.079-2.056-3.103c-0.696-1.02-1.452-2.055-2.265-3.1s-1.776-2.219-2.892-3.52
			c-0.93-1.068-1.94-2.066-3.03-2.996c-1.093-0.93-2.242-1.508-3.45-1.742c-0.883-0.186-1.557-0.277-2.021-0.277
			c-0.418,0-0.953-0.023-1.603-0.07c0,3.02,0,5.643,0,7.873s0.022,4.111,0.07,5.646c0.045,1.487,0.092,2.764,0.139,3.832
			c0.046,1.069,0.302,1.951,0.767,2.647c0.371,0.604,1.091,1.22,2.16,1.847c1.068,0.628,2.554,0.987,4.459,1.08v0.697h-22.297
			v-0.697c1.16-0.185,2.275-0.464,3.345-0.837c1.068-0.371,1.903-0.928,2.508-1.672c0.232-0.278,0.418-0.696,0.558-1.254
			s0.243-1.185,0.313-1.882c0.07-0.696,0.128-1.439,0.174-2.229c0.046-0.789,0.07-1.556,0.07-2.299c0-0.65,0.011-1.533,0.034-2.648
			s0.046-2.334,0.07-3.658c0.023-1.324,0.035-2.684,0.035-4.076c0-1.439,0-2.787,0-4.043V88.195c0-0.838-0.012-1.684-0.035-2.544
			c-0.024-0.859-0.07-1.673-0.14-2.439s-0.186-1.463-0.349-2.09s-0.383-1.08-0.662-1.358c-0.696-0.743-1.475-1.243-2.334-1.499
			c-0.86-0.254-1.916-0.476-3.17-0.662v-0.696c0.371,0,1.324,0,2.856,0c1.579,0,3.367-0.011,5.365-0.035
			c1.997-0.022,3.995-0.034,5.992-0.034s3.624,0,4.879,0c3.111,0,5.875,0.094,8.292,0.278c2.414,0.187,4.621,0.813,6.619,1.881
			c2.043,1.07,3.692,2.521,4.947,4.355c1.254,1.836,1.882,4.146,1.882,6.934c0,1.719-0.314,3.264-0.941,4.633
			c-0.627,1.371-1.464,2.58-2.509,3.625s-2.264,1.939-3.658,2.682c-1.394,0.744-2.856,1.371-4.39,1.881v0.209
			c0.79,0.418,1.556,1.023,2.3,1.812c0.742,0.791,1.464,1.672,2.16,2.648c1.207,1.766,2.52,3.67,3.937,5.713
			c1.416,2.046,2.683,3.856,3.798,5.437c1.719,2.415,3.391,4.18,5.018,5.295c1.625,1.115,3.529,1.836,5.713,2.16v0.697H339.564z
			 M332.666,83.665c-1.162-1.812-2.856-3.251-5.087-4.319c-1.114-0.511-2.288-0.883-3.519-1.115
			c-1.231-0.232-2.521-0.349-3.867-0.349c-0.976,0-1.766,0.024-2.369,0.069c-0.604,0.047-1.069,0.094-1.394,0.14
			c-0.047,0.279-0.094,0.522-0.14,0.731c-0.047,0.21-0.082,0.478-0.104,0.801c-0.023,0.326-0.047,0.779-0.069,1.359
			c-0.024,0.581-0.059,1.406-0.104,2.474c-0.047,1.626-0.082,3.461-0.104,5.504c-0.024,2.045-0.035,4.018-0.035,5.924
			c0,1.904,0,3.576,0,5.016c0,1.395,0,2.277,0,2.648c1.904,0,3.681-0.08,5.33-0.244c1.648-0.162,3.24-0.498,4.773-1.01
			c1.486-0.465,2.764-1.092,3.833-1.883c1.067-0.789,1.938-1.682,2.612-2.682c0.674-0.998,1.173-2.078,1.498-3.24
			c0.325-1.16,0.488-2.369,0.488-3.623C334.408,87.545,333.827,85.477,332.666,83.665z"/>
	</g>
</g>
</svg>
